<svg xmlns="http://www.w3.org/2000/svg" xmlns:xlink="http://www.w3.org/1999/xlink" width="512" height="512" version="1.1" viewBox="0 0 512 512"><title>AJS - Abdyunior Januar Suek Monogram</title><defs><linearGradient id="linearGradient-1" x1="0%" x2="100%" y1="0%" y2="100%"><stop offset="0%" stop-color="#818CF8"/><stop offset="100%" stop-color="#2DD4BF"/></linearGradient></defs><g id="Page-1" fill="none" fill-rule="evenodd" stroke="none" stroke-width="1"><g id="AJS-Favicon"><circle id="Background" cx="256" cy="256" r="256" fill="#020617"/><g id="Monogram" fill="url(#linearGradient-1)" transform="translate(106.000000, 116.000000)"><path id="Shape-A" d="M149.7,0 L0,279.7 L59.1,279.7 L149.7,110.2 L240.3,279.7 L299.4,279.7 L149.7,0 Z M149.7,163.7 L106.3,244.9 L193.1,244.9 L149.7,163.7 Z" transform="translate(149.700000, 139.850000) rotate(-180.000000) translate(-149.700000, -139.850000)"/><path id="Shape-J-S-Merge" d="M150,56 C150,56 226,56 266,56 C288.1,56 300,73.9 300,96 L300,216 C300,260.2 264.2,296 220,296 L150,296 L150,236 L220,236 C231,236 240,227 240,216 L240,116 L150,116 L150,56 Z"/></g></g></g></svg>